<svg width="20" height="20" viewBox="0 0 20 20" fill="none" xmlns="http://www.w3.org/2000/svg">
<path d="M15.9107 12.0627C15.9107 12.7026 15.6566 13.3162 15.2041 13.7687C14.7517 14.2211 14.138 14.4753 13.4982 14.4753H6.64656C6.00672 14.4753 5.39307 14.2211 4.94063 13.7687C4.48819 13.3162 4.23402 12.7026 4.23402 12.0627V6.87575C4.23477 6.68889 4.27377 6.50415 4.34862 6.33293L8.38963 10.9228C8.60133 11.1638 8.86201 11.3569 9.15427 11.4892C9.44653 11.6215 9.76364 11.6899 10.0844 11.6899C10.4052 11.6899 10.7224 11.6215 11.0146 11.4892C11.3069 11.3569 11.5675 11.1638 11.7792 10.9228L15.772 6.39324L15.8203 6.3269C15.8951 6.50024 15.9341 6.68694 15.9349 6.87575V12.0627H15.9107ZM5.59107 5.5006H14.5296C14.6495 5.49902 14.7692 5.51322 14.8854 5.54282L14.8372 5.59107L10.8444 10.1206C10.7476 10.2336 10.6272 10.3239 10.4918 10.3854C10.3563 10.4469 10.2091 10.478 10.0603 10.4765C9.91183 10.4764 9.76507 10.4446 9.62986 10.3832C9.49464 10.3218 9.37408 10.2323 9.27624 10.1206L5.24729 5.54282C5.35944 5.51322 5.47509 5.49902 5.59107 5.5006ZM10 0C8.02219 0 6.08879 0.58649 4.4443 1.6853C2.79981 2.78412 1.51808 4.3459 0.761209 6.17316C0.00433259 8.00043 -0.1937 10.0111 0.192152 11.9509C0.578004 13.8907 1.53041 15.6725 2.92893 17.0711C4.32746 18.4696 6.10929 19.422 8.0491 19.8078C9.98891 20.1937 11.9996 19.9957 13.8268 19.2388C15.6541 18.4819 17.2159 17.2002 18.3147 15.5557C19.4135 13.9112 20 11.9778 20 10C20 7.34783 18.9464 4.8043 17.0711 2.92893C15.1957 1.05357 12.6522 0 10 0V0Z" fill="white"/>
</svg>
