<svg width="12" height="12" viewBox="0 0 12 12" fill="none" xmlns="http://www.w3.org/2000/svg">
<path d="M11.522 9.26846C12.1453 9.89176 12.1453 10.9 11.522 11.5215C11.2103 11.8332 10.807 12 10.3854 12C9.98205 12 9.57873 11.8533 9.26708 11.5215L6.0039 8.2785L2.74071 11.5215C2.42906 11.8332 2.02574 12 1.60409 12C1.20078 12 0.779131 11.8332 0.467479 11.5215C-0.155826 10.9 -0.155826 9.89176 0.467479 9.25012L3.73066 6.00527L0.467479 2.74025C-0.155826 2.11878 -0.155826 1.09216 0.467479 0.468854C1.09078 -0.156285 2.09907 -0.156285 2.74071 0.468854L6.0039 3.73021L9.24875 0.468854C9.89039 -0.156285 10.8987 -0.156285 11.522 0.468854C12.1453 1.09216 12.1453 2.11878 11.522 2.74025L8.25879 6.00527L11.522 9.26846Z" fill="#3F3F3F"/>
</svg>
