<svg width="69" height="15" viewBox="0 0 69 15" fill="none" xmlns="http://www.w3.org/2000/svg">
<path fill-rule="evenodd" clip-rule="evenodd" d="M8.27495 0.0412733C6.736 -0.121045 5.18461 0.197889 3.83403 0.954238C2.48345 1.71059 1.39998 2.86722 0.732537 4.26516C0.0650955 5.6631 -0.153549 7.23371 0.106657 8.76112C0.366863 10.2885 1.09314 11.6978 2.18567 12.7951C3.2782 13.8924 4.68335 14.624 6.20797 14.8893C7.73259 15.1545 9.30184 14.9405 10.7 14.2765C12.0982 13.6125 13.2567 12.5312 14.0162 11.1812C14.7758 9.83124 15.0991 8.27883 14.9417 6.73739C14.7686 5.02398 14.0111 3.42264 12.7968 2.20301C11.5825 0.983373 9.9856 0.219946 8.27495 0.0412733V0.0412733ZM8.03223 11.469C7.20454 11.5802 6.36286 11.4289 5.62548 11.0364C4.8881 10.6438 4.2921 10.0298 3.92123 9.2806C3.55037 8.53138 3.42329 7.68464 3.55785 6.85938C3.69241 6.03412 4.08185 5.27182 4.67144 4.67961C5.26102 4.08741 6.02111 3.69509 6.84489 3.55777C7.66866 3.42045 8.51469 3.54505 9.26409 3.91405C10.0135 4.28304 10.6286 4.8779 11.0229 5.615C11.4172 6.3521 11.571 7.1944 11.4625 8.02351C11.3487 8.89559 10.951 9.70578 10.3308 10.3287C9.71072 10.9515 8.90282 11.3523 8.03223 11.469V11.469ZM18.948 0.337982C18.6882 0.338604 18.4318 0.397211 18.1975 0.509537C17.9632 0.621863 17.7568 0.785083 17.5934 0.98732C17.43 1.18956 17.3137 1.42572 17.253 1.67863C17.1922 1.93155 17.1885 2.19484 17.2422 2.44936C17.4065 3.27391 18.1757 3.8373 19.0136 3.8373H23.8762L16.3089 13.8645C16.253 13.9385 16.2187 14.0267 16.21 14.1191C16.2012 14.2115 16.2184 14.3046 16.2595 14.3878C16.3006 14.471 16.3641 14.5411 16.4428 14.5902C16.5215 14.6394 16.6123 14.6656 16.705 14.6659H28.5749C29.4123 14.6659 30.182 14.1027 30.3463 13.278C30.4 13.0235 30.3964 12.7603 30.3356 12.5074C30.2749 12.2545 30.1587 12.0184 29.9954 11.8161C29.8321 11.6139 29.6258 11.4506 29.3916 11.3382C29.1573 11.2258 28.901 11.1671 28.6412 11.1663H22.7166L30.278 1.14695C30.3345 1.07221 30.3691 0.983176 30.3779 0.889842C30.3867 0.796508 30.3694 0.702567 30.3278 0.618557C30.2863 0.534548 30.2222 0.463794 30.1427 0.414234C30.0632 0.364675 29.9715 0.33827 29.8779 0.337982H18.948V0.337982ZM66.3795 0.378345C65.9865 0.471912 65.6372 0.696966 65.3893 1.0163C65.1414 1.33563 65.0097 1.73011 65.0161 2.13452V7.96077L55.5876 0.448026C55.5137 0.389258 55.4247 0.352583 55.3309 0.342221C55.237 0.33186 55.1422 0.348231 55.0572 0.389453C54.9723 0.430674 54.9007 0.495071 54.8506 0.575236C54.8006 0.6554 54.7742 0.748074 54.7745 0.842598V12.8725C54.7681 13.2769 54.8997 13.6714 55.1476 13.9908C55.3955 14.3101 55.7449 14.5352 56.1378 14.6287C56.393 14.6849 56.6576 14.6831 56.9119 14.6233C57.1663 14.5635 57.404 14.4472 57.6076 14.2832C57.8111 14.1191 57.9753 13.9114 58.0879 13.6753C58.2006 13.4393 58.2589 13.1809 58.2585 12.9193V7.0426L67.6871 14.5555C67.761 14.6142 67.85 14.6509 67.9438 14.6612C68.0376 14.6716 68.1324 14.6552 68.2173 14.614C68.3022 14.5728 68.3738 14.5084 68.4238 14.4283C68.4738 14.3482 68.5002 14.2555 68.5 14.161V2.08722C68.5003 1.82565 68.4419 1.56735 68.3292 1.33138C68.2165 1.0954 68.0524 0.887757 67.8489 0.723758C67.6454 0.559759 67.4077 0.443586 67.1534 0.383804C66.8991 0.324023 66.6346 0.322157 66.3795 0.378345V0.378345ZM41.8303 3.50235C45.8183 3.50235 48.7981 5.61259 48.7981 7.50019C48.7981 9.3878 45.8183 11.498 41.8303 11.498C37.8423 11.498 34.8625 9.3878 34.8625 7.50019C34.8625 5.61259 37.8423 3.50235 41.8303 3.50235M41.8303 0.00317562C36.0578 0.00317562 31.3785 3.35973 31.3785 7.50019C31.3785 11.6407 36.0578 14.9972 41.8303 14.9972C47.6027 14.9972 52.282 11.6407 52.282 7.50019C52.282 3.35973 47.6026 0.00317562 41.8303 0.00317562V0.00317562Z" fill="#0069FF"/>
</svg>
