<svg width="113" height="25" viewBox="0 0 113 25" fill="none" xmlns="http://www.w3.org/2000/svg">
<path d="M13.5591 2.93335C13.9186 3.39656 14.223 3.89998 14.4663 4.43347L7.56993 9.50404L4.68884 7.70232V5.53461L7.56993 7.33632L13.5591 2.93335Z" fill="#21A038"/>
<path d="M1.74876 7.54985C1.74876 7.45245 1.75112 7.35585 1.75583 7.25925L0.00987782 7.17285C-0.0442216 8.22708 0.124346 9.28087 0.504603 10.2656C0.88486 11.2504 1.46828 12.144 2.21686 12.8882L3.45466 11.6536C2.91381 11.1158 2.48465 10.4764 2.19188 9.77208C1.89911 9.06779 1.74852 8.31256 1.74876 7.54985Z" fill="url(#paint0_linear_413_148)"/>
<path d="M7.56866 1.7442C7.66605 1.7442 7.76266 1.74734 7.85926 1.75205L7.94644 0.0100249C6.89054 -0.0444268 5.83496 0.123388 4.848 0.502612C3.86105 0.881837 2.96469 1.46402 2.21692 2.21151L3.45472 3.44695C3.99477 2.90653 4.63613 2.47795 5.34207 2.18577C6.04801 1.89358 6.80465 1.74353 7.56866 1.7442Z" fill="url(#paint1_linear_413_148)"/>
<path d="M7.56992 13.3558C7.47253 13.3558 7.37592 13.3534 7.27932 13.3479L7.19214 15.09C8.24804 15.1444 9.30362 14.9766 10.2906 14.5974C11.2775 14.2181 12.1739 13.636 12.9217 12.8885L11.6839 11.6538C11.1436 12.1939 10.5022 12.6222 9.79629 12.9143C9.09039 13.2063 8.33385 13.3563 7.56992 13.3558Z" fill="url(#paint2_linear_413_148)"/>
<path d="M10.8505 2.75727L12.3224 1.67498C10.9767 0.588559 9.2986 -0.00259247 7.56909 0.000500356V1.7441C8.74013 1.74259 9.88416 2.09582 10.8505 2.75727Z" fill="url(#paint3_linear_413_148)"/>
<path d="M15.1378 7.549C15.1378 7.08718 15.0962 6.63557 15.016 6.19653L13.3879 7.39349L13.3903 7.54821C13.3903 9.25254 12.6496 10.788 11.4739 11.8514L12.6481 13.1474C13.4327 12.4412 14.0599 11.5777 14.4888 10.6132C14.9178 9.64866 15.1389 8.60462 15.1378 7.549Z" fill="#21A038"/>
<path d="M7.5696 13.3548C6.75687 13.3553 5.95307 13.1854 5.2101 12.856C4.46713 12.5265 3.80149 12.045 3.25616 11.4424L1.95789 12.6142C2.66742 13.3979 3.53349 14.024 4.50012 14.452C5.46675 14.8801 6.51243 15.1006 7.5696 15.0992V13.3556V13.3548Z" fill="url(#paint4_linear_413_148)"/>
<path d="M3.66573 3.24758L2.49076 1.95166C1.70602 2.6578 1.0787 3.52121 0.649611 4.48575C0.220522 5.45029 -0.000729349 6.49434 0.00024736 7.55002H1.74856C1.74856 5.84569 2.48919 4.31023 3.66573 3.24758Z" fill="url(#paint5_linear_413_148)"/>
<path d="M43.4885 4.43192L45.5111 2.94515H38.7459V11.8689H45.5111V10.3845H40.6757V8.09897H44.8002V6.6122H40.6757V4.43192H43.4885ZM33.6372 6.42527H31.2879V4.43113H35.0392L37.0618 2.94436H29.3556V11.8681H33.3874C35.6488 11.8681 36.9448 10.8471 36.9448 9.06423C36.9448 7.36226 35.7697 6.4237 33.6372 6.4237V6.42527ZM33.301 10.3845H31.2887V7.91126H33.3018C34.5271 7.91126 35.0974 8.32517 35.0974 9.14905C35.0974 9.98865 34.4926 10.3845 33.3018 10.3845H33.301ZM50.992 2.94515H47.309V11.8689H49.2389V9.34069H50.992C53.3437 9.34069 54.8031 8.10761 54.8031 6.1386C54.8031 4.16959 53.3421 2.94515 50.992 2.94515ZM50.9504 7.85628H49.2389V4.43192H50.9504C52.1867 4.43192 52.8693 5.03982 52.8693 6.14489C52.8693 7.24838 52.1867 7.85707 50.9504 7.85707V7.85628ZM26.0418 9.93681C25.5469 10.2101 24.9712 10.3531 24.375 10.3531C22.6352 10.3531 21.3698 9.11293 21.3698 7.40624C21.3698 5.69956 22.6328 4.45941 24.375 4.45941C25.0332 4.45941 25.6247 4.64476 26.1305 5.00841L27.5153 3.99052L27.4242 3.91198C26.6159 3.20198 25.5367 2.82812 24.3004 2.82812C22.9596 2.82812 21.7429 3.27895 20.8757 4.09655C20.0039 4.91966 19.5216 6.07813 19.5216 7.35833C19.5216 8.64404 20.0007 9.81822 20.871 10.668C21.7429 11.5186 22.9572 11.9875 24.287 11.9875C25.6773 11.9875 26.8948 11.5029 27.7179 10.6217C27.0817 10.1552 26.469 9.70355 26.469 9.70355L26.0425 9.93681H26.0418Z" fill="#21A038"/>
<path d="M28.2001 18.2982L25.3253 23.0373H24.521L21.5849 18.3642V25H19.988V16.0841H22.0067L24.9695 20.9364L27.9063 16.0841H29.7961V25H28.2001V18.2982ZM37.6987 21.1382H33.5876V23.5321H38.3129V24.9969H31.9907V16.0818H38.1715V17.5458H33.5876V19.6734H37.6987V21.1382ZM46.1503 17.5466H41.681V24.9969H40.0857V16.0818H46.1511V17.5458L46.1503 17.5466ZM54.3608 24.9969H52.6626L51.808 22.8826H47.7094L46.8666 24.9969H45.2454L48.8711 16.0818H50.684L54.36 24.9961L54.3608 24.9969ZM51.2189 21.4178L49.7501 17.7618L48.2813 21.4178H51.2189ZM66.4695 18.2974L63.5947 23.0365H62.7911L59.8543 18.3634V24.9985H58.2582V16.0841H60.2769L63.2397 20.9356L66.1757 16.0841H68.0663V24.9985H66.4695V18.2974ZM78.3064 24.9969H76.6098L75.7521 22.8826H71.6543L70.8108 24.9969H69.1903L72.816 16.0818H74.6289L78.3072 24.9961L78.3064 24.9969ZM75.1669 21.4178L73.6989 17.7618L72.2301 21.4178H75.1677H75.1669ZM81.0406 22.2213V25H79.4438V16.0841H82.4184C83.8314 16.0841 84.8556 16.337 85.4895 16.8413C86.1234 17.3455 86.4415 18.1011 86.4415 19.1009C86.4415 20.1455 86.1014 20.9269 85.4188 21.4445C84.7386 21.9621 83.7387 22.2221 82.4184 22.2221H81.0406V22.2213ZM81.0406 17.5458V20.7549H82.5354C83.2839 20.7549 83.8471 20.6253 84.2202 20.3677C84.5957 20.1078 84.781 19.6734 84.781 19.0616C84.781 18.511 84.6067 18.1191 84.2579 17.8898C83.9084 17.6604 83.3436 17.5458 82.5597 17.5458H81.0406ZM89.6698 24.9969H88.0737V16.0818H89.6698V19.8258H91.0098L93.883 16.0818H95.8239L92.4142 20.323L96.3737 24.9961H94.3307L91.0875 21.1382H89.6698V24.9969ZM103.219 21.1382H99.1079V23.5321H103.833V24.9969H97.5111V16.0818H103.692V17.5458H99.1079V19.6734H103.219V21.1382ZM112.245 17.5466H109.231V24.9969H107.634V17.5458H104.671V16.0818H112.242V17.5458H112.245V17.5466Z" fill="#632895"/>
<defs>
<linearGradient id="paint0_linear_413_148" x1="2.02994" y1="12.6699" x2="0.260421" y2="7.54042" gradientUnits="userSpaceOnUse">
<stop offset="0.144" stop-color="#F2E913"/>
<stop offset="0.304" stop-color="#E7E518"/>
<stop offset="0.582" stop-color="#CADB26"/>
<stop offset="0.891" stop-color="#A3CD39"/>
</linearGradient>
<linearGradient id="paint1_linear_413_148" x1="2.71644" y1="2.01673" x2="7.24429" y2="0.287273" gradientUnits="userSpaceOnUse">
<stop offset="0.059" stop-color="#0FA8E0"/>
<stop offset="0.538" stop-color="#0099F9"/>
<stop offset="0.923" stop-color="#0291EB"/>
</linearGradient>
<linearGradient id="paint2_linear_413_148" x1="7.07668" y1="13.6236" x2="12.4708" y2="12.4015" gradientUnits="userSpaceOnUse">
<stop offset="0.123" stop-color="#A3CD39"/>
<stop offset="0.285" stop-color="#86C339"/>
<stop offset="0.869" stop-color="#21A038"/>
</linearGradient>
<linearGradient id="paint3_linear_413_148" x1="7.20388" y1="1.10635" x2="11.6901" y2="2.49416" gradientUnits="userSpaceOnUse">
<stop offset="0.057" stop-color="#0291EB"/>
<stop offset="0.79" stop-color="#0C8ACB"/>
</linearGradient>
<linearGradient id="paint4_linear_413_148" x1="2.39614" y1="12.8954" x2="7.21538" y2="14.7002" gradientUnits="userSpaceOnUse">
<stop offset="0.132" stop-color="#F2E913"/>
<stop offset="0.298" stop-color="#EBE716"/>
<stop offset="0.531" stop-color="#D9E01F"/>
<stop offset="0.802" stop-color="#BBD62D"/>
<stop offset="0.983" stop-color="#A3CD39"/>
</linearGradient>
<linearGradient id="paint5_linear_413_148" x1="1.33543" y1="7.76129" x2="3.24946" y2="2.77162" gradientUnits="userSpaceOnUse">
<stop offset="0.07" stop-color="#A3CD39"/>
<stop offset="0.26" stop-color="#81C55F"/>
<stop offset="0.922" stop-color="#0FA8E0"/>
</linearGradient>
</defs>
</svg>
