<svg width="20" height="20" viewBox="0 0 20 20" fill="none" xmlns="http://www.w3.org/2000/svg">
<path fill-rule="evenodd" clip-rule="evenodd" d="M10 19.375C14.8325 19.375 18.75 15.4575 18.75 10.625C18.75 5.79251 14.8325 1.875 10 1.875C5.16751 1.875 1.25 5.79251 1.25 10.625C1.25 12.1943 1.66312 13.6671 2.38655 14.9406L1.25 19.375L5.82179 18.3149C7.06336 18.9909 8.48682 19.375 10 19.375ZM10 18.0288C14.089 18.0288 17.4038 14.714 17.4038 10.625C17.4038 6.53597 14.089 3.22115 10 3.22115C5.91097 3.22115 2.59615 6.53597 2.59615 10.625C2.59615 12.2038 3.09031 13.6672 3.9324 14.8689L3.26923 17.3558L5.79996 16.7231C6.99335 17.5466 8.44036 18.0288 10 18.0288Z" fill="#BFC8D0"/>
<path d="M17.5 10C17.5 14.1421 14.1421 17.5 10 17.5C8.4201 17.5 6.9543 17.0115 5.74541 16.1773L3.18182 16.8182L3.8536 14.299C3.00058 13.0817 2.5 11.5993 2.5 10C2.5 5.85786 5.85786 2.5 10 2.5C14.1421 2.5 17.5 5.85786 17.5 10Z" fill="url(#paint0_linear_424_13)"/>
<path fill-rule="evenodd" clip-rule="evenodd" d="M10 18.75C14.8325 18.75 18.75 14.8325 18.75 10C18.75 5.16751 14.8325 1.25 10 1.25C5.16751 1.25 1.25 5.16751 1.25 10C1.25 11.5693 1.66312 13.0421 2.38655 14.3156L1.25 18.75L5.82179 17.6899C7.06336 18.3659 8.48682 18.75 10 18.75ZM10 17.4038C14.089 17.4038 17.4038 14.089 17.4038 10C17.4038 5.91097 14.089 2.59615 10 2.59615C5.91097 2.59615 2.59615 5.91097 2.59615 10C2.59615 11.5788 3.09031 13.0422 3.9324 14.2439L3.26923 16.7308L5.79996 16.0981C6.99335 16.9216 8.44036 17.4038 10 17.4038Z" fill="white"/>
<path d="M7.81251 5.93761C7.60447 5.51975 7.28533 5.55675 6.96292 5.55675C6.38673 5.55675 5.48828 6.24692 5.48828 7.5314C5.48828 8.58411 5.95216 9.73645 7.51526 11.4603C9.02378 13.1239 11.0059 13.9844 12.6514 13.9551C14.2969 13.9258 14.6354 12.5098 14.6354 12.0316C14.6354 11.8197 14.5039 11.7139 14.4133 11.6852C13.8525 11.4161 12.8183 10.9146 12.583 10.8204C12.3477 10.7262 12.2248 10.8537 12.1484 10.923C11.935 11.1263 11.512 11.7257 11.3672 11.8605C11.2224 11.9953 11.0064 11.9271 10.9166 11.8761C10.5859 11.7434 9.68933 11.3446 8.97467 10.6518C8.09083 9.79504 8.03896 9.50027 7.87244 9.23788C7.73922 9.02796 7.83698 8.89917 7.88576 8.84289C8.07619 8.62316 8.33913 8.28393 8.45705 8.11535C8.57496 7.94677 8.48135 7.69082 8.42518 7.53141C8.18361 6.84582 7.97895 6.2719 7.81251 5.93761Z" fill="white"/>
<defs>
<linearGradient id="paint0_linear_424_13" x1="16.5625" y1="4.375" x2="2.5" y2="17.5" gradientUnits="userSpaceOnUse">
<stop stop-color="#5BD066"/>
<stop offset="1" stop-color="#27B43E"/>
</linearGradient>
</defs>
</svg>
