<svg width="128" height="15" viewBox="0 0 128 15" fill="none" xmlns="http://www.w3.org/2000/svg">
<path d="M3.90667 14.7258L0 0.259274H2.56267L5.56481 11.3707L8.78188 0.258206L11.1707 0.259274L14.3989 11.4294L17.4144 0.261941L19.9771 0.258206L16.0683 14.7237L13.0976 14.7205L9.97761 3.91685L6.85334 14.7231L3.90667 14.7258ZM21.7446 0.266743H24.184V14.7167H21.7446V0.266743ZM29.4 12.4499H35.3387V14.7167H27.0107V0.266743H29.4V12.4499ZM42.8427 0.283281C44.8448 0.283281 46.5104 0.983213 47.823 2.36654C49.1521 3.74987 49.8246 5.46662 49.8246 7.49973C49.8246 9.51631 49.1521 11.2331 47.8224 12.6335C46.5104 14.0168 44.8448 14.7167 42.8427 14.7167H37.1056V0.266743H42.8427V0.283281ZM42.8427 12.4665C44.2224 12.4665 45.3494 12.0002 46.191 11.0666C47.0657 10.133 47.503 8.93321 47.503 7.5168C47.503 6.06679 47.0657 4.90006 46.191 3.96646C45.3323 3.03286 44.2054 2.5666 42.8427 2.5666H39.5115V12.4665H42.8427ZM62.6955 10.5886C62.6955 11.7729 62.2753 12.7567 61.4171 13.5404C60.559 14.3241 59.5494 14.7242 58.3046 14.7242H52.0625V0.266743H57.8502C59.0449 0.266743 60.0539 0.666856 60.8785 1.41747C61.7201 2.18409 62.1238 3.13529 62.1238 4.26895C62.1238 5.53597 61.6187 6.50318 60.6433 7.22019C61.9217 7.88704 62.6955 9.08792 62.6955 10.5886ZM54.4683 2.50098V6.30313H57.8667C58.927 6.30313 59.7345 5.46929 59.7345 4.40232C59.7345 3.33535 58.927 2.50098 57.8667 2.50098H54.4683ZM58.3211 12.4894C59.4315 12.4894 60.3067 11.606 60.3067 10.4718C60.3067 9.33812 59.4315 8.45414 58.3211 8.45414H54.4683V12.5065H58.3211V12.4894ZM67.3558 12.4563H73.8166V14.7242H64.967V0.266743H73.7158V2.53405H67.3558V6.28659H73.1942V8.5379H67.3558V12.4563ZM84.2817 14.7242L81.1857 9.45496H78.359V14.7242H75.9702V0.266743H81.8081C83.1206 0.266743 84.231 0.717004 85.1228 1.63406C86.031 2.51805 86.5025 3.61863 86.5025 4.91927C86.5025 6.75339 85.3414 8.4376 83.6086 9.10446L86.9228 14.7242H84.2817ZM78.359 2.50098V7.33702H81.7915C83.07 7.33702 84.0796 6.27005 84.0796 4.91927C84.0796 3.58502 83.0534 2.50098 81.7915 2.50098H78.359ZM97.0513 14.7242L93.9724 9.45229H91.1457V14.7242H88.7569V0.259274H94.5948C95.9073 0.259274 97.0177 0.709535 97.9094 1.62713C98.8177 2.51165 99.2892 3.61276 99.2892 4.91393C99.2892 6.74912 98.1281 8.4344 96.3953 9.10179L99.7094 14.7242H97.0513ZM91.1457 2.49458V7.33329H94.5782C95.8566 7.33329 96.8662 6.26525 96.8662 4.91393C96.8662 3.57915 95.8401 2.49458 94.5782 2.49458H91.1457ZM101.459 0.260874H103.849V14.7242H101.459V0.260874ZM109.064 12.4563H115.525V14.7237H106.675V0.266743H115.424V2.53512H109.064V6.28712H114.902V8.53843H109.064V12.4569V12.4563ZM117.191 11.4331L119.26 10.2333C119.849 11.8668 121.043 12.6665 122.877 12.6665C124.694 12.6665 125.586 11.8999 125.586 10.7668C125.586 10.1666 125.333 9.73343 124.863 9.43308C124.391 9.11673 123.516 8.76623 122.272 8.40026C120.875 7.9836 120.185 7.71686 119.209 7.08361C118.267 6.41676 117.796 5.46715 117.796 4.16652C117.796 2.88349 118.25 1.8832 119.176 1.13312C120.084 0.366505 121.195 0 122.49 0C124.829 0 126.629 1.20034 127.571 3.1833L125.552 4.3335C124.946 2.99979 123.92 2.31693 122.49 2.31693C121.093 2.31693 120.202 3.01686 120.202 4.1169C120.202 5.18334 120.908 5.68322 123.146 6.36661C123.701 6.55013 124.105 6.6835 124.357 6.78326C124.627 6.86649 124.98 7.01693 125.434 7.19991C125.906 7.38343 126.276 7.60003 126.495 7.78355C127.268 8.38318 128.092 9.36693 127.992 10.7497C127.992 12.0498 127.521 13.1003 126.562 13.8669C125.619 14.6335 124.375 15 122.827 15C120 14.9835 117.947 13.6503 117.191 11.4337V11.4331Z" fill="#AE29A0"/>
</svg>
