<svg width="83" height="15" viewBox="0 0 83 15" fill="none" xmlns="http://www.w3.org/2000/svg">
<path d="M39.003 12.7037H40.651L42.9482 4.34867V12.7037H44.796V1.66138H42.2491L39.9518 9.77212L37.6546 1.66138H35.0577V12.7037H36.6558V4.34867L39.003 12.7037ZM52.5367 7.2314C52.5367 5.27701 51.5379 4.54411 49.4904 4.54411C48.1919 4.54411 47.1931 4.93499 46.5938 5.27701V6.84053C47.0932 6.44965 48.2419 6.05877 49.2407 6.05877C50.1895 6.05877 50.589 6.40079 50.589 7.2314V7.67114H50.2894C47.3429 7.67114 45.9946 8.64834 45.9946 10.2607C45.9946 11.8731 46.9934 12.8014 48.4916 12.8014C49.6402 12.8014 50.1396 12.4594 50.4892 12.0685H50.589C50.589 12.264 50.6889 12.5571 50.7389 12.7037H52.6366C52.5866 12.0685 52.5367 11.3845 52.5367 10.7493V7.2314ZM50.589 10.7982C50.3393 11.1402 49.8899 11.4334 49.1907 11.4334C48.3917 11.4334 47.9922 10.9448 47.9922 10.2607C47.9922 9.33238 48.6414 8.99036 50.3393 8.99036H50.639V10.7982H50.589ZM55.8827 4.69069H54.0848V15.0001H56.0325V11.7754C56.5319 12.5083 57.231 12.8503 58.08 12.8503C59.9777 12.8503 61.2762 11.3845 61.2762 8.6972C61.2762 6.00991 60.0277 4.54411 58.1799 4.54411C57.281 4.54411 56.5319 4.93499 55.9825 5.71675L55.8827 4.69069ZM57.5307 11.3845C56.5319 11.3845 55.9825 10.5539 55.9825 8.74606C55.9825 6.88939 56.5319 6.05877 57.6306 6.05877C58.6793 6.05877 59.2286 6.88939 59.2286 8.6972C59.2286 10.5539 58.6793 11.3845 57.5307 11.3845ZM67.3189 12.7037H69.5162L66.42 8.40404L69.1667 4.69069H67.219L64.4723 8.40404V4.69069H62.5247V12.7037H64.4723V8.79492L67.3189 12.7037ZM76.0084 12.1663V10.6027C75.4091 10.9936 74.4103 11.3356 73.4615 11.3356C72.0632 11.3356 71.5138 10.7005 71.4139 9.33238H76.0584V8.30632C76.0584 5.52131 74.8099 4.49525 72.8622 4.49525C70.515 4.49525 69.3664 6.25421 69.3664 8.6972C69.3664 11.4822 70.7647 12.8503 73.2118 12.8503C74.5602 12.8503 75.4591 12.5571 76.0084 12.1663ZM72.8622 6.05877C73.8111 6.05877 74.1107 6.84053 74.1107 7.81772V7.9643H71.4139C71.4639 6.69395 71.9633 6.05877 72.8622 6.05877ZM83 6.20535V4.69069H76.5078V6.20535H78.805V12.7037H80.7527V6.20535H83Z" fill="black"/>
<path d="M23.5217 14.658C27.6667 14.658 31.0126 11.3844 31.0126 7.32898C31.0126 3.27361 27.6667 0 23.5217 0C19.3767 0 16.0307 3.27361 16.0307 7.32898C15.9808 11.3844 19.3767 14.658 23.5217 14.658Z" fill="#FED42B"/>
<path d="M7.49098 14.658C11.6281 14.658 14.982 11.3767 14.982 7.32898C14.982 3.2813 11.6281 0 7.49098 0C3.35382 0 0 3.2813 0 7.32898C0 11.3767 3.35382 14.658 7.49098 14.658Z" fill="#FC3F1D"/>
<path d="M8.58967 4.10428H7.84057C6.54213 4.10428 5.89291 4.73946 5.89291 5.71665C5.89291 6.79157 6.34237 7.32903 7.29123 7.96421L8.04033 8.50167L5.89291 11.7753H4.14502L6.19255 8.79483C4.994 7.96421 4.34478 7.18245 4.34478 5.81437C4.34478 4.10428 5.54334 2.93164 7.84057 2.93164H10.1378V11.7264H8.63961V4.10428H8.58967Z" fill="white"/>
<path d="M19.8261 4.00643L13.234 12.4592L14.9819 14.4136L19.876 8.0618L19.3766 11.5309L22.1233 12.4592L25.4693 7.23118C25.3195 8.20838 25.0698 10.4559 27.2671 11.14C30.713 12.166 33.7093 6.1074 35.1077 3.02923L33.1101 2.00317C31.5619 5.17907 29.1648 8.69698 28.216 8.45268C27.2671 8.20838 28.1161 5.22793 28.6654 3.32239V3.27353L25.6191 2.24747L21.9735 8.0618L22.4729 4.88591L19.8261 4.00643Z" fill="black"/>
</svg>
